HIERARCHY
ROOT hip
{
  OFFSET 0 0 0
  CHANNELS 6 Xposition Yposition Zposition Zrotation Yrotation Xrotation
  JOINT abdomen
  {
    OFFSET 0 20.6881 -0.73152
    CHANNELS 3 Zrotation Xrotation Yrotation
    JOINT chest
    {
      OFFSET 0 11.7043 -0.48768
      CHANNELS 3 Zrotation Xrotation Yrotation
      JOINT neck
      {
        OFFSET 0 22.1894 -2.19456
        CHANNELS 3 Zrotation Xrotation Yrotation
        JOINT head
        {
          OFFSET -0.24384 7.07133 1.2192
          CHANNELS 3 Zrotation Xrotation Yrotation
          JOINT leftEye
          {
            OFFSET 4.14528 8.04674 8.04672
            CHANNELS 3 Zrotation Xrotation Yrotation
            End Site
            {
              OFFSET 1 0 0
            }
          }
          JOINT rightEye
          {
            OFFSET -3.6576 8.04674 8.04672
            CHANNELS 3 Zrotation Xrotation Yrotation
            End Site
            {
              OFFSET 1 0 0
            }
          }
        }
      }
      JOINT rCollar
      {
        OFFSET -2.68224 19.2634 -4.8768
        CHANNELS 3 Zrotation Xrotation Yrotation
        JOINT rShldr
        {
          OFFSET -8.77824 -1.95073 1.46304
          CHANNELS 3 Zrotation Xrotation Yrotation
          JOINT rForeArm
          {
            OFFSET -28.1742 -1.7115 0.48768
            CHANNELS 3 Zrotation Xrotation Yrotation
            JOINT rHand
            {
              OFFSET -22.5879 0.773209 7.07136
              CHANNELS 3 Zrotation Xrotation Yrotation
              JOINT rThumb1
              {
                OFFSET -1.2192 -0.487915 3.41376
                CHANNELS 3 Zrotation Xrotation Yrotation
                JOINT rThumb2
                {
                  OFFSET -3.37035 -0.52449 3.41376
                  CHANNELS 3 Zrotation Xrotation Yrotation
                  End Site
                  {
                    OFFSET -1.78271 -1.18214 1.43049
                  }
                }
              }
              JOINT rIndex1
              {
                OFFSET -7.75947 0.938293 5.60832
                CHANNELS 3 Zrotation Xrotation Yrotation
                JOINT rIndex2
                {
                  OFFSET -2.54057 -0.884171 1.56538
                  CHANNELS 3 Zrotation Xrotation Yrotation
                  End Site
                  {
                    OFFSET -1.62519 -0.234802 1.16502
                  }
                }
              }
              JOINT rMid1
              {
                OFFSET -8.24714 1.18213 3.41376
                CHANNELS 3 Zrotation Xrotation Yrotation
                JOINT rMid2
                {
                  OFFSET -3.10165 -0.590103 1.0647
                  CHANNELS 3 Zrotation Xrotation Yrotation
                  End Site
                  {
                    OFFSET -2.48547 -0.328903 0.83742
                  }
                }
              }
              JOINT rRing1
              {
                OFFSET -8.82822 0.546677 1.51678
                CHANNELS 3 Zrotation Xrotation Yrotation
                JOINT rRing2
                {
                  OFFSET -2.60934 -0.819778 -0.0198488
                  CHANNELS 3 Zrotation Xrotation Yrotation
                  End Site
                  {
                    OFFSET -2.33842 -0.294052 0.168128
                  }
                }
              }
              JOINT rPinky1
              {
                OFFSET -8.27202 -0.0477905 -0.4584
                CHANNELS 3 Zrotation Xrotation Yrotation
                JOINT rPinky2
                {
                  OFFSET -1.82734 -0.647385 -0.700984
                  CHANNELS 3 Zrotation Xrotation Yrotation
                  End Site
                  {
                    OFFSET -1.69225 -0.51767 -0.607171
                  }
                }
              }
            }
          }
        }
      }
      JOINT lCollar
      {
        OFFSET 2.68224 19.2634 -4.8768
        CHANNELS 3 Zrotation Xrotation Yrotation
        JOINT lShldr
        {
          OFFSET 8.77824 -1.95073 1.46304
          CHANNELS 3 Zrotation Xrotation Yrotation
          JOINT lForeArm
          {
            OFFSET 28.1742 -1.7115 0.48768
            CHANNELS 3 Zrotation Xrotation Yrotation
            JOINT lHand
            {
              OFFSET 22.5879 0.773209 7.07136
              CHANNELS 3 Zrotation Xrotation Yrotation
              JOINT lThumb1
              {
                OFFSET 1.2192 -0.487915 3.41376
                CHANNELS 3 Zrotation Xrotation Yrotation
                JOINT lThumb2
                {
                  OFFSET 3.37035 -0.52449 3.41376
                  CHANNELS 3 Zrotation Xrotation Yrotation
                  End Site
                  {
                    OFFSET 1.78271 -1.18214 1.43049
                  }
                }
              }
              JOINT lIndex1
              {
                OFFSET 7.75947 0.938293 5.60832
                CHANNELS 3 Zrotation Xrotation Yrotation
                JOINT lIndex2
                {
                  OFFSET 2.54057 -0.884171 1.56538
                  CHANNELS 3 Zrotation Xrotation Yrotation
                  End Site
                  {
                    OFFSET 1.62519 -0.234802 1.16502
                  }
                }
              }
              JOINT lMid1
              {
                OFFSET 8.24714 1.18213 3.41376
                CHANNELS 3 Zrotation Xrotation Yrotation
                JOINT lMid2
                {
                  OFFSET 3.10165 -0.590103 1.0647
                  CHANNELS 3 Zrotation Xrotation Yrotation
                  End Site
                  {
                    OFFSET 2.48547 -0.328903 0.83742
                  }
                }
              }
              JOINT lRing1
              {
                OFFSET 8.82822 0.546677 1.51678
                CHANNELS 3 Zrotation Xrotation Yrotation
                JOINT lRing2
                {
                  OFFSET 2.60934 -0.819778 -0.0198488
                  CHANNELS 3 Zrotation Xrotation Yrotation
                  End Site
                  {
                    OFFSET 2.33842 -0.294052 0.168128
                  }
                }
              }
              JOINT lPinky1
              {
                OFFSET 8.27202 -0.0477905 -0.4584
                CHANNELS 3 Zrotation Xrotation Yrotation
                JOINT lPinky2
                {
                  OFFSET 1.82734 -0.647385 -0.700984
                  CHANNELS 3 Zrotation Xrotation Yrotation
                  End Site
                  {
                    OFFSET 1.69225 -0.51767 -0.607171
                  }
                }
              }
            }
          }
        }
      }
    }
  }
  JOINT rButtock
  {
    OFFSET -8.77824 4.35084 1.2192
    CHANNELS 3 Zrotation Xrotation Yrotation
    JOINT rThigh
    {
      OFFSET 0 -1.70687 -2.19456
      CHANNELS 3 Zrotation Xrotation Yrotation
      JOINT rShin
      {
        OFFSET 0 -36.8199 0.73152
        CHANNELS 3 Zrotation Xrotation Yrotation
        JOINT rFoot
        {
          OFFSET 0.73152 -45.1104 -5.12064
          CHANNELS 3 Zrotation Xrotation Yrotation
          End Site
          {
            OFFSET -1.1221 -3.69964 12.103
          }
        }
      }
    }
  }
  JOINT lButtock
  {
    OFFSET 8.77824 4.35084 1.2192
    CHANNELS 3 Zrotation Xrotation Yrotation
    JOINT lThigh
    {
      OFFSET 0 -1.70687 -2.19456
      CHANNELS 3 Zrotation Xrotation Yrotation
      JOINT lShin
      {
        OFFSET 0 -36.8199 0.73152
        CHANNELS 3 Zrotation Xrotation Yrotation
        JOINT lFoot
        {
          OFFSET -0.73152 -45.1104 -5.12064
          CHANNELS 3 Zrotation Xrotation Yrotation
          End Site
          {
            OFFSET 1.1221 -3.69964 12.103
          }
        }
      }
    }
  }
}
MOTION
Frames:	9
Frame Time:	0.03333
0.0 0.0 0.0 0.0 0.0 0.0 0.0 0.0 0.0 0.0 0.0 0.0 0.0 0.0 0.0 0.0 0.0 0.0 0.0 0.0 0.0 0.0 0.0 0.0 0.0 0.0 0.0 0.0 0.0 0.0 0.0 0.0 0.0 0.0 0.0 0.0 0.0 0.0 0.0 0.0 0.0 0.0 0.0 0.0 0.0 0.0 0.0 0.0 0.0 0.0 0.0 0.0 0.0 0.0 0.0 0.0 0.0 0.0 0.0 0.0 0.0 0.0 0.0 0.0 0.0 0.0 0.0 0.0 0.0 0.0 0.0 0.0 0.0 0.0 0.0 0.0 0.0 0.0 0.0 0.0 0.0 0.0 0.0 0.0 0.0 0.0 0.0 0.0 0.0 0.0 0.0 0.0 0.0 0.0 0.0 0.0 0.0 0.0 0.0 0.0 0.0 0.0 0.0 0.0 0.0 0.0 0.0 0.0 0.0 0.0 0.0 0.0 0.0 0.0 0.0 0.0 0.0 0.0 0.0 0.0 0.0 0.0 0.0 0.0 0.0 0.0 0.0 0.0 0.0 0.0 0.0 0.0
-0.0451 62.3909 -0.34650000000000003 -179.297591 27.320085 179.278135 -1.874711 1.350772 103.212756 5.623227 -11.148166 -142.472567 6.302232 -16.935471 61.410711 36.994027 -20.15799 51.468381 20.799005 -1.146036 -6.238602 10.558011 -7.361075 -69.69025 76.561926 -0.557577 8.462384 -164.725419 -0.421085 176.619257 1.246334 9.549542 176.321472 168.971251 -5.931169 88.648615 10.044725 -14.69637 32.949186 -138.34196 43.485822 -110.851288 -164.958757 16.091696 -150.765268 -98.354222 -60.690787 -120.33004 -153.053245 24.048687 -124.986265 -67.070447 -76.145739 -109.043508 -9.227115 7.962418 -91.349318 -153.413014 63.923412 171.104707 -167.52353 21.180283 -65.232953 -140.680002 -13.974932 -125.974543 86.803975 -37.735972 -169.361605 166.481945 -0.68536 -174.827959 87.698801 88.427663 107.582922 14.972004 57.053917 38.341795 176.991103 5.794407 -76.024048 53.740904 8.126481 -38.355054 130.276539 23.701684 -62.197232 -3.454235 12.695519 -7.21006 131.871407 39.777987 -80.70828 82.428659 -37.945124 136.822978 -96.465154 -5.790935 72.804787 -17.7138 20.690545 15.536924 -33.231821 -9.912088 89.033651 152.420224 12.366413 144.521544 -32.316785 45.837024 -136.467015 1.455242 53.678241 -0.0 -3.517805 4.243382 -144.983761 71.730166 52.413757 -75.710229 -22.771343 -45.039051 -29.848195 2.408353 47.401841 176.729937 -6.291923 -4.001349 -94.651059 55.638335 -46.699559 -123.448969
0.4919 59.285399999999996 -0.1449 -34.181856 77.897334 -29.615366 -8.240287 21.459453 13.549329 6.387938 -13.917052 -15.737074 -17.181928 36.747554 -104.50559 56.354639 30.329729 65.131758 -177.077483 -2.60888 -83.50696 20.152365 -2.285968 -12.812371 -151.280028 -3.209895 162.383055 -104.934502 -81.244597 -84.505264 175.474784 -69.2257 -95.981187 -10.080245 17.381967 -2.578495 -68.734926 37.72152 37.259999 25.475554 -19.383241 13.18418 9.589537 -31.004725 -26.109081 33.550591 -11.47668 15.236298 -135.80661 23.543091 136.362689 -128.951444 0.010132 165.974977 -62.752416 -71.381595 -90.486344 -158.531409 -52.093084 -170.967959 -89.075602 -60.952055 -86.13262 -138.754842 -16.504596 -108.420925 160.638613 -47.285843 -176.375795 21.003683 11.968709 52.573864 -84.982352 -31.078232 92.33298 119.364591 63.86036 -93.189275 150.842452 5.333156 -83.199251 -36.507301 -38.191088 -45.884009 30.389727 47.609683 -24.007715 168.579603 39.119756 -99.225279 41.78969 50.714259 -37.498034 8.157954 28.401109 12.151485 -10.523153 -64.185757 -12.404885 -170.616486 40.374889 167.243369 126.826261 -28.622798 121.402932 150.016689 -6.853397 152.33907 177.08334 69.607357 3.111308 153.307251 7.050063 -88.164099 -74.081319 -8.825548 103.867524 112.820626 -38.198051 3.197331 2.006058 4.569167 -2.732814 53.542886 -39.68022 -115.254543 -87.211541 -58.93343 -161.809963 -157.454069 68.077745 54.895808
0.12229999999999999 56.5746 0.7896000000000001 -62.572348 76.044997 -56.454158 1.979252 23.977038 -0.729202 5.299416 -10.285883 -8.62448 -0.324048 26.29183 109.154634 -47.941765 7.578552 -149.346852 -5.80342 2.914171 -53.297375 -0.287166 0.048561 -19.196155 -10.869578 32.641634 21.679235 -105.370166 39.324941 141.82147 -1.216186 -15.19642 -137.941864 -179.176514 -12.844735 145.816015 5.923969 0.246272 -6.983513 -112.281829 -17.327323 135.195721 -132.177174 -56.210571 147.764097 43.579454 37.581888 24.335908 -21.182012 58.677967 11.822833 -176.268499 -12.644253 126.758836 -174.324038 47.366708 179.644974 -75.103908 31.951996 51.842442 -23.069734 16.488068 0.345745 -101.586935 11.727245 -155.978216 63.529778 -85.945709 80.975494 -1.929012 -13.095914 62.12691 -13.835317 -43.461505 134.647196 171.721422 1.209328 -138.682543 -1.013623 -3.662736 4.148171 133.352789 -6.366081 -92.261305 161.288792 -8.59908 -134.840011 175.782658 -14.137706 -154.644119 -95.188217 -58.395067 -61.104331 -95.315461 -70.241493 -79.599049 10.16651 -0.074548 6.9811 -32.274572 -39.940717 -19.765832 30.224113 -59.70543 25.173764 149.925466 -5.573329 132.783879 1.44154 5.965998 0.372021 -38.774405 -50.286034 -93.585283 -69.445831 17.410422 3.801377 -13.465729 -52.72526 79.401582 -6.309127 2.96034 -1.596304 67.919606 -46.48344 73.607479 95.545262 65.445274 136.670331 -146.501015 33.879264 -143.735377
-1.087 54.342800000000004 1.6424999999999998 -61.853682 78.275718 -53.382905 2.189113 21.726698 21.994235 1.546111 -14.037412 -34.136608 -12.73422 17.157493 -20.735155 25.934855 -22.206036 -25.866029 32.455648 -3.658843 -12.525184 -5.717801 0.271611 -5.434817 -171.713311 -67.857924 159.234219 164.444922 24.509268 -161.664235 -77.032268 -65.423846 37.874432 6.025603 -29.368768 1.73129 -0.949052 7.854033 -2.431756 -7.524244 -43.403545 -48.618083 -154.914685 -14.850661 134.444764 -8.031776 63.250459 -10.992042 -159.504656 1.436493 162.143746 -7.822837 -20.885324 -33.898544 -90.680483 -67.532695 -94.967105 -23.73438 -55.08028 -54.925324 -107.829426 -63.66084 -47.614495 22.813029 16.954325 -70.026197 137.16132 -72.809222 162.023148 -11.373895 12.08806 53.680536 23.423553 -31.087275 160.141941 -174.908943 -28.296771 -149.935761 2.99864 -0.705168 -0.836415 98.090385 37.666933 -79.529794 163.175137 -4.965612 -131.876284 -65.116956 -78.141404 -36.561826 78.749493 47.295925 -50.449798 152.396651 -40.173667 -117.558692 13.628018 2.698008 14.611345 -12.792304 -44.037477 4.485063 154.326004 -6.05931 126.195974 5.368565 45.136698 2.516114 109.711214 56.950113 48.664594 -169.95989 18.507398 150.848867 37.745764 -58.881584 -117.151167 -34.220968 8.979558 -11.516709 83.884375 39.832208 54.866406 -90.515947 -22.716539 -1.940476 92.722944 55.922189 -2.079771 -161.21629 19.840505 56.1525
-1.91 54.18579999999999 2.3019000000000003 -32.647859 77.918505 -23.29691 1.348982 17.330937 175.48011 -5.588137 10.838149 174.551435 2.794902 22.137237 51.712032 -25.82358 -15.379266 -113.342619 44.702534 2.992224 7.26913 4.25677 -0.201675 -5.422504 3.931332 -44.708753 -9.352726 45.852628 39.646202 -26.283082 14.94218 -5.021811 116.365599 -12.019103 22.213978 1.461945 77.98441 -51.626331 20.44562 -47.786288 -13.454387 8.629628 -18.340849 17.295594 -6.335724 69.994639 -21.119773 35.821128 -6.775198 -24.647299 -20.9276 -159.370727 -32.508063 123.156744 -141.902915 -2.084087 176.476702 -167.579218 -15.562894 168.58549 154.35518 0.703918 -159.776973 -61.094002 -31.669557 29.666729 147.907873 20.859725 -150.975773 56.559421 4.847132 -19.190841 -34.174669 0.134568 155.803278 163.388904 36.297594 -139.995999 -98.254812 -48.308895 -45.075786 139.779638 26.024745 -77.038288 153.628935 17.891992 -107.73763 178.517781 9.416109 -90.866273 75.463759 57.164071 -44.326574 160.074825 -13.471775 -117.570652 155.25858 5.058498 166.85468 167.246063 -27.312983 -174.897739 2.992893 2.971958 16.37524 -33.382348 -4.519746 -24.299838 60.890311 20.499217 48.746009 -117.903693 -0.524451 -180.0 -75.186673 -46.423091 -145.90268 12.087032 62.425159 -101.695789 -38.505377 30.771954 -53.610197 117.844896 14.494083 112.551534 86.961036 27.309478 -3.752379 -8.573772 -33.684726 -73.251004
-2.6245000000000003 52.4181 3.3527 -39.018984 81.908982 -30.038925 3.582317 21.213041 170.183892 -4.489616 15.816204 177.357384 -20.679284 31.853871 -73.035449 43.732515 13.757339 15.640729 9.138462 -2.391099 -29.270253 4.48307 -0.095621 -2.442536 -154.073075 -66.25978 179.542215 -49.554214 -49.137207 -41.067641 -12.373485 -12.576393 -153.688376 174.382214 -26.549147 148.990838 -161.000019 -23.043967 103.903018 -34.034703 7.150515 34.510909 -164.570639 -35.561683 135.990458 -28.379853 72.834075 1.972694 -14.106743 51.971692 -5.112458 -177.986841 -6.195155 116.076156 -78.629756 -78.322804 -94.280682 145.253229 -7.268504 -156.480258 -60.403942 -27.496513 -4.128896 -12.060578 -14.387809 -71.255631 15.536521 32.535773 -18.795358 99.388179 1.178084 -128.316268 -8.395646 25.339504 148.518356 175.988954 -0.312693 -144.771723 164.235358 -6.661234 -84.685138 4.193958 -29.802634 -19.752275 170.734165 -19.886591 -115.231309 16.227302 -17.582808 15.1297 -66.537248 -86.646447 -53.464703 123.103961 -75.803508 165.105436 137.421201 -37.5485 154.304178 9.511895 44.169635 -8.605966 25.132303 -33.380438 28.592885 77.433926 83.280712 -155.473383 171.096442 77.533158 -0.0 151.734186 12.55074 -180.0 4.402815 -77.660833 -134.666807 -153.108749 -4.060586 41.959707 -63.929917 62.355106 -59.049104 164.307041 27.741819 -148.886075 111.578961 -77.120932 -153.146031 178.172278 20.109979 -102.155594
-3.0348 51.179399999999994 4.3968 -50.40772 83.83016 -41.471014 5.023945 21.713644 166.633566 -5.227005 15.800382 179.048051 -19.351698 26.272879 -27.530482 39.779405 -16.431459 -22.409703 -17.383368 6.437176 -40.391961 -1.882011 0.265805 -16.076549 -12.787861 42.689555 14.701518 -126.599348 -3.003064 150.258994 85.949074 -63.619941 -74.417246 -164.837819 27.868445 144.183583 -164.04878 -36.306191 108.68731 1.946388 -11.455761 9.239826 -45.909523 46.778853 26.548326 104.237702 -49.011308 34.929992 -161.704016 6.754254 158.767346 178.568341 -11.361267 161.031035 -154.315945 -0.16887 174.841791 -22.574778 -13.558046 45.774499 151.932599 72.736376 -130.288208 -19.865432 50.954635 55.977229 -1.237843 -18.225992 -2.3551 96.981022 -26.450091 -179.764078 -112.751579 -46.687134 117.111626 43.019142 51.483258 -24.473478 175.680672 -20.934447 -80.794079 -21.986011 -55.448482 -19.554437 -11.361334 -18.434305 -8.258798 -27.746244 8.552194 14.650661 171.284632 -5.881896 -144.361919 -171.173842 -64.154205 -148.73818 0.820794 -1.206795 -2.083023 -56.624244 65.918558 56.350991 146.546624 -6.113792 130.106561 114.523137 -21.483981 83.680626 -158.849154 70.425051 -22.324033 138.837209 3.208335 91.763745 81.496619 11.650623 -132.910239 98.229106 29.893794 3.220559 -36.994912 33.026501 -56.181656 123.463306 12.368716 -0.0 -109.272671 34.83051 -101.189212 84.927807 59.207767 157.814431
-3.0017 51.139199999999995 5.162599999999999 -37.346219 83.812184 -29.044185 3.688185 21.420375 169.990258 -6.180615 14.238668 174.53716 0.084897 33.085374 93.498561 -43.127953 -1.364193 -156.135958 -18.450242 4.472007 -27.035452 -6.188925 2.218153 -39.405198 -82.378253 68.584472 86.120194 -3.975761 12.490378 49.71135 -115.089709 25.780098 -59.635273 54.648631 -79.028904 44.166528 -145.058839 0.750611 108.882266 -29.062428 9.796053 13.733701 -0.661834 -0.363408 -7.113624 -142.928593 1.136387 136.956742 -129.718624 -77.556906 -164.023466 -6.884726 67.170886 15.359951 -94.213071 -75.168812 -101.26415 160.141309 33.967113 -160.159027 36.155538 72.470008 -10.139118 -135.085591 55.052679 -170.671785 162.0528 -31.152251 -164.154816 59.773643 -17.324018 39.121603 -110.158754 -52.691699 129.542852 36.866601 42.581057 -19.200656 165.612202 -16.558072 -81.921825 137.09641 4.012899 -64.882646 46.955741 32.140401 -44.296251 146.349261 -1.803203 -105.630017 17.743467 31.448188 -15.803454 169.244804 -32.82858 -151.181487 138.898785 11.552396 -171.055783 -34.399702 4.972136 -14.225627 110.545771 -39.166191 97.924478 25.403759 -24.662962 48.000449 -0.507945 8.32433 0.719766 -72.928368 -55.147891 -154.945443 -88.255507 1.160906 -149.303031 50.773541 79.618789 -146.109993 75.163353 13.939297 46.764956 -60.150563 -32.988157 -180.0 -137.405392 -78.564297 -31.736859 175.234434 7.211445 -95.285756
